<svg width="120" height="120" viewBox="0 0 120 120" fill="none" xmlns="http://www.w3.org/2000/svg">
<path d="M26.2353 51C26.2353 60.9411 34.2941 69 44.2353 69L71.2353 69C73.9967 69 76.2353 66.7614 76.2353 64L76.2353 30C76.2353 24.4772 71.7581 20 66.2353 20L31.2353 20C28.4738 20 26.2353 22.2386 26.2353 25L26.2353 51Z" fill="#FFF1DA"/>
<path d="M74.8192 64.9414C73.4608 65.2457 72.1378 65.8092 70.9323 66.5966C67.7915 68.5979 65.9642 71.4547 66.8511 72.9768C67.7381 74.4989 71.0031 74.1097 74.1439 72.1083C75.3657 71.3488 76.4511 70.378 77.3332 69.256C77.7426 68.7139 77.8161 68.0384 77.5209 67.5335L76.3687 65.5561C76.0755 65.0496 75.4674 64.8087 74.8192 64.9414Z" fill="#D5D6DB"/>
<path d="M66.9322 37.9483C65.9472 38.1691 64.9878 38.5779 64.1135 39.1489C61.8367 40.5997 60.5109 42.6711 61.1535 43.7739C61.7961 44.8767 64.1646 44.5942 66.4412 43.1435C67.3271 42.5925 68.114 41.8882 68.7538 41.0746C69.0503 40.6816 69.1034 40.1923 68.8894 39.8262L68.0551 38.3944C67.8429 38.0273 67.4022 37.8522 66.9322 37.9483Z" fill="#D5D6DB"/>
<path d="M54.118 39.0787C53.8988 39.0542 53.6649 39.1127 53.4622 39.2422L48.114 42.6504C47.6667 42.9346 47.4876 43.4819 47.7146 43.8731C47.7665 43.9628 47.8375 44.0393 47.9237 44.0983L61.1054 53.1832L78.9388 41.8186L54.118 39.0787Z" fill="#029BC5"/>
<path d="M110.495 37.7941L61.963 68.3463L33.2502 79.7717L18.6071 82.6824L16.9962 79.9452L97.8913 29.9986C100.302 28.5037 102.988 27.5861 105.677 27.3391C106.854 27.2372 108.017 27.2763 109.138 27.4551C110.132 27.6058 111.075 27.8965 111.939 28.3186C112.902 28.7969 114.737 28.852 115.331 29.8048C115.333 29.8033 116.735 34.1777 110.495 37.7941V37.7941Z" fill="#E1E6E9"/>
<path d="M62.6063 64.3037L41.611 97.7737C41.3488 98.2438 41.5045 98.7703 41.9583 98.9495C42.2369 99.0596 42.5778 99.0161 42.8642 98.8341L48.2082 95.4439C49.2361 94.7916 50.1462 93.963 50.8823 93.0095L91.5987 45.1405L62.6063 64.3037Z" fill="#029BC5"/>
<path d="M9.62667 63.1862C9.27645 63.0665 8.85966 63.1286 8.50784 63.3527L4.09034 66.1661C3.48843 66.5491 3.24858 67.2856 3.55444 67.8112C3.61271 67.9111 3.68841 67.9991 3.77915 68.0715L16.1559 77.9839L29.1689 69.8558L9.62667 63.1862Z" fill="#029BC5"/>
<path d="M20.3043 79.7708L13.6428 89.1003C13.5451 89.2344 13.5681 89.4027 13.6941 89.476C13.7849 89.5289 13.9089 89.5194 14.0097 89.4518L18.1379 86.8359C18.17 86.8155 18.1991 86.7901 18.2231 86.761L27.9566 74.9262L20.3043 79.7708Z" fill="#029BC5"/>
<path d="M108.341 27.8574C107.187 27.6719 105.989 27.6323 104.776 27.7389C103.596 29.39 102.841 31.2447 102.587 33.1181C102.569 33.4945 102.872 33.7653 103.265 33.7231C103.387 33.7099 103.509 33.667 103.618 33.5982L111.226 28.7539C110.336 28.3153 109.365 28.0135 108.341 27.8574Z" fill="#029BC5"/>
<path d="M91.7622 36.7655L96.7292 33.6285L101.356 41.4976L96.3888 44.6345L91.7622 36.7655Z" fill="#D5D6DB"/>
<path d="M88.6367 39.8776C88.0382 40.2567 87.7989 40.9855 88.1028 41.5053L88.5951 42.3472C88.919 42.8537 89.6582 42.9428 90.2465 42.5461C90.8063 42.1683 91.0318 41.4816 90.762 40.9746L90.2697 40.1326C89.9661 39.6133 89.2352 39.499 88.6367 39.8776V39.8776Z" fill="#3A556A"/>
<path d="M84.1723 42.6502C83.5738 43.0293 83.3345 43.7581 83.6384 44.2778L84.1307 45.1198C84.4545 45.6263 85.1938 45.7153 85.7821 45.3186C86.3419 44.9408 86.5674 44.2542 86.2976 43.7471L85.8053 42.9052C85.5014 42.3861 84.7706 42.2718 84.1723 42.6502V42.6502Z" fill="#3A556A"/>
<path d="M79.7064 45.4235C79.1085 45.8031 78.8702 46.531 79.1738 47.0503L79.6661 47.8922C79.9899 48.3987 80.7292 48.4877 81.3175 48.091C81.8773 47.7133 82.1028 47.0266 81.833 46.5196L81.3407 45.6776C81.0368 45.1579 80.3052 45.0442 79.7064 45.4235V45.4235Z" fill="#3A556A"/>
<path d="M75.2421 48.1959C74.6442 48.5756 74.4059 49.3035 74.7095 49.8228L75.2018 50.6647C75.5256 51.1712 76.2649 51.2603 76.8532 50.8636C77.413 50.4858 77.6385 49.7991 77.3687 49.2921L76.8764 48.4501C76.5722 47.9305 75.8407 47.8167 75.2421 48.1959V48.1959Z" fill="#3A556A"/>
<path d="M70.7782 50.9686C70.18 51.3484 69.9415 52.0766 70.2453 52.5961L70.7379 53.4384C71.0416 53.9577 71.7728 54.0714 72.3712 53.6924C72.9695 53.3134 73.2084 52.5853 72.9048 52.066L72.4122 51.2237C72.1093 50.7039 71.3783 50.5894 70.7795 50.9678C70.779 50.9681 70.7787 50.9682 70.7782 50.9686Z" fill="#3A556A"/>
<path d="M66.3138 53.741C65.7156 54.1208 65.4771 54.8491 65.7809 55.3686L66.2735 56.2109C66.5771 56.7302 67.3084 56.8439 67.9068 56.4649C68.5051 56.0859 68.744 55.3577 68.4404 54.8385L67.9478 53.9961C67.6448 53.4764 66.9138 53.3619 66.3151 53.7402C66.3146 53.7405 66.3141 53.7409 66.3138 53.741Z" fill="#3A556A"/>
<path d="M61.8492 56.5135C61.251 56.8933 61.0125 57.6215 61.3163 58.141L61.8088 58.9833C62.1133 59.5021 62.8449 59.6147 63.4426 59.2352C64.0393 58.8563 64.2777 58.1297 63.9754 57.6111L63.4829 56.7688C63.1793 56.2491 62.4481 56.1348 61.8492 56.5135Z" fill="#3A556A"/>
<path d="M57.3846 59.2859C56.7864 59.6658 56.5479 60.394 56.8517 60.9135L57.3442 61.7558C57.6487 62.2746 58.3803 62.3872 58.978 62.0077C59.5747 61.6289 59.8131 60.9022 59.5108 60.3835L59.0183 59.5412C58.7147 59.0215 57.9835 58.9072 57.3846 59.2859Z" fill="#3A556A"/>
<path d="M52.9203 62.0584C52.3221 62.4382 52.0836 63.1664 52.3874 63.6859L52.8799 64.5282C53.1844 65.047 53.916 65.1596 54.5137 64.7801C55.1104 64.4013 55.3488 63.6746 55.0465 63.156L54.554 62.3137C54.2502 61.7942 53.5189 61.6799 52.9203 62.0584Z" fill="#3A556A"/>
<path d="M48.4545 64.8316C47.8561 65.2106 47.6172 65.9388 47.9209 66.458L47.9215 66.4591L48.4141 67.3015C48.7186 67.8203 49.4502 67.9328 50.0479 67.5534C50.6446 67.1745 50.883 66.4478 50.5807 65.9292L50.0881 65.0869C49.7846 64.5672 49.0534 64.4529 48.4545 64.8316Z" fill="#3A556A"/>
<path d="M43.9913 67.6033C43.3929 67.9823 43.154 68.7105 43.4577 69.2297L43.4584 69.2308L43.9509 70.0732C44.2554 70.5919 44.987 70.7045 45.5847 70.325C46.1815 69.9462 46.4199 69.2196 46.1176 68.7009L45.625 67.8586C45.3212 67.3391 44.5899 67.2248 43.9913 67.6033Z" fill="#3A556A"/>
</svg>
