<svg width="120" height="120" viewBox="0 0 120 120" fill="none" xmlns="http://www.w3.org/2000/svg">
<path d="M106 81C106 90.9411 97.9411 99 88 99L61 99C58.2386 99 56 96.7614 56 94L56 60C56 54.4772 60.4772 50 66 50L101 50C103.761 50 106 52.2386 106 55L106 81Z" fill="#FFF1DA"/>
<path d="M37.527 71.6574L35.6389 70.7535L24.4222 87.3382H36.9402L38.1464 86.5516V72.225L37.527 71.6574Z" fill="#407093"/>
<path d="M35.8096 70.8353L31.5645 68.803H30.7644L18.7607 86.5516L19.4753 87.3382H24.6483L35.8096 70.8353Z" fill="#365E7D"/>
<path d="M40.4 86.5515H23.8475C23.0956 86.5515 22.486 87.161 22.486 87.9131V89.6385C22.486 90.3903 23.0955 90.9998 23.8473 90.9999H40.4C41.152 90.9999 41.7616 90.3904 41.7616 89.6385V87.9131C41.7616 87.161 41.152 86.5515 40.4 86.5515V86.5515Z" fill="#4A80AA"/>
<path d="M22.7677 89.6385V87.9131C22.7677 87.1611 23.3774 86.5515 24.1293 86.5515H15.3616C14.6096 86.5515 14 87.161 14 87.9131V89.6385C14 90.3904 14.6096 90.9999 15.3616 90.9999H24.1292C23.3772 90.9999 22.7677 90.3904 22.7677 89.6385V89.6385Z" fill="#407093"/>
<path d="M35.2398 60.9827C34.7302 62.0338 34.4423 63.2123 34.4423 64.459C34.4423 67.8659 36.5757 70.7721 39.5783 71.9218C40.8674 71.5179 42.0128 70.7893 42.9176 69.8301V68.0893L35.2398 60.9827Z" fill="#4A80AA"/>
<path d="M34.5767 64.4863C34.5767 63.2684 34.8583 62.1173 35.357 61.0909L32.9027 58.8192H31.9069C30.4009 60.2399 29.4595 62.2525 29.4595 64.4862C29.4595 68.7893 32.9477 72.2775 37.2508 72.2775C38.1471 72.2775 39.0067 72.1237 39.8078 71.8449C36.7628 70.7856 34.5767 67.8921 34.5767 64.4863V64.4863Z" fill="#407093"/>
<path d="M79.812 21.9247C78.5791 20.6918 76.5801 20.6918 75.3473 21.9247L72.3345 24.9376V25.3194L76.0949 29.2395L76.7991 29.4022L79.8119 26.3894C81.0449 25.1566 81.0449 23.1576 79.812 21.9247V21.9247Z" fill="#FFD086"/>
<path d="M80.6449 23.4149C80.5134 22.8691 80.238 22.3508 79.812 21.9247C78.5791 20.6918 76.5801 20.6918 75.3473 21.9247L72.3345 24.9376V25.3194L74.3282 27.3978C75.5169 26.1609 76.697 24.9403 77.3039 24.3334C78.3156 23.3218 79.7933 23.314 80.6449 23.4149V23.4149Z" fill="#FFC365"/>
<path d="M69.4975 29.9503C69.4629 29.9503 69.4279 29.9485 69.3927 29.9451L34.5763 26.5181C33.9957 26.4609 33.5714 25.944 33.6286 25.3634C33.6857 24.7827 34.2029 24.3588 34.7833 24.4155L69.5997 27.8423C70.1802 27.8995 70.6046 28.4164 70.5475 28.9971C70.4937 29.5427 70.0342 29.9503 69.4975 29.9503Z" fill="#365E7D"/>
<path d="M44.6459 36.4681C44.1774 36.4681 43.7493 36.1539 43.6249 35.6795C43.4769 35.1151 43.8144 34.5377 44.3787 34.3896L69.2287 27.8715C69.793 27.7237 70.3706 28.061 70.5185 28.6254C70.6666 29.1896 70.3292 29.7671 69.7648 29.9152L44.9147 36.4333C44.8248 36.4568 44.7345 36.4681 44.6459 36.4681V36.4681Z" fill="#407093"/>
<path d="M76.2465 68.136C75.7093 68.136 75.2498 67.7281 75.1963 67.1823L71.7907 32.3445C71.734 31.764 72.1586 31.2472 72.7392 31.1903C73.3199 31.1362 73.8366 31.5584 73.8933 32.139L77.2989 66.9768C77.3557 67.5573 76.931 68.0741 76.3504 68.131C76.3155 68.1342 76.2808 68.136 76.2465 68.136Z" fill="#365E7D"/>
<path d="M66.2253 58.2475C66.1357 58.2475 66.0447 58.2359 65.9539 58.212C65.3899 58.0624 65.054 57.4841 65.2036 56.9201L71.8176 31.9741C71.967 31.41 72.5452 31.0746 73.1093 31.2236C73.6733 31.3732 74.0092 31.9515 73.8596 32.5155L67.2456 57.4615C67.1202 57.9348 66.6927 58.2475 66.2253 58.2475V58.2475Z" fill="#407093"/>
<path d="M69.3069 27.9642L72.3274 24.9437L76.7914 29.4078L73.7709 32.4283L69.3069 27.9642Z" fill="#FFC365"/>
<path d="M71.6009 30.2457C72.3268 29.4856 73.4605 28.3 74.557 27.16L72.3346 24.9375L69.3136 27.9584L71.6009 30.2457Z" fill="#FFA90F"/>
<path d="M74.4509 34.1519C74.1806 34.1519 73.9101 34.0487 73.704 33.8425L67.8944 28.0331C67.4818 27.6204 67.4818 26.9517 67.8944 26.539C68.3069 26.1267 68.9757 26.1267 69.3883 26.539L75.1979 32.3484C75.6105 32.761 75.6105 33.4297 75.1979 33.8425C74.9916 34.0488 74.7213 34.1519 74.4509 34.1519Z" fill="#4A80AA"/>
<path d="M75.1326 70.0376L39.7618 34.36C35.0724 44.9466 34.2581 56.3114 37.7687 66.1115C47.4642 74.8573 61.9475 76.2003 75.2808 70.7026L75.1326 70.0376Z" fill="#B5DCFF"/>
<path d="M39.9502 34.55L31.8463 26.3757L31.0341 26.4558C25.3245 40.3031 26.9917 55.3917 36.6683 65.0684C37.2544 65.6545 37.8609 66.2107 38.4853 66.7383C34.4062 56.9498 35.0691 45.3077 39.9502 34.55V34.55Z" fill="#8BCAFF"/>
<path d="M78.365 67.5017L42.4915 31.6282C42.1385 31.6826 41.7986 31.8431 41.5268 32.1149L39.9664 33.6754C39.6313 34.0105 39.4647 34.4481 39.4599 34.8874L75.2197 70.647C75.7514 71.1787 76.6134 71.1787 77.1451 70.647L78.3652 69.4271C78.8967 68.8955 78.8967 68.0334 78.365 67.5017Z" fill="#DBEDFF"/>
<path d="M40.0203 33.7021L41.5481 32.1743C41.8295 31.8929 42.1848 31.7318 42.5515 31.6882L34.2352 23.3719C33.7035 22.8402 32.8415 22.8402 32.3096 23.3719L31.0896 24.592C30.5579 25.1237 30.5579 25.9857 31.0896 26.5174L39.5228 34.9506C39.5117 34.5 39.6764 34.0459 40.0203 33.7021V33.7021Z" fill="#B5DCFF"/>
</svg>
