<svg width="380" height="284" viewBox="0 0 380 284" fill="none" xmlns="http://www.w3.org/2000/svg">
<g opacity="0.1">
<mask id="mask0" mask-type="alpha" maskUnits="userSpaceOnUse" x="-101" y="-77" width="480" height="361">
<rect x="378.5" y="-76.5" width="360" height="479" transform="rotate(90 378.5 -76.5)" fill="url(#paint0_linear)" stroke="#6246E5"/>
</mask>
<g mask="url(#mask0)">
<path d="M135.505 376.92C66.1724 376.92 9.9658 320.635 9.9658 251.202C9.9658 181.769 66.1724 125.484 135.505 125.484C204.838 125.484 261.045 181.769 261.045 251.202C261.045 320.635 204.838 376.92 135.505 376.92Z" stroke="#6246E5"/>
<path d="M148.773 381.902C71.1965 381.902 8.30749 318.925 8.30749 241.237C8.30749 163.55 71.1965 100.573 148.773 100.573C226.349 100.573 289.238 163.55 289.238 241.237C289.238 318.925 226.349 381.902 148.773 381.902Z" stroke="#6246E5"/>
<path d="M159.552 386.885C74.6488 386.885 5.81975 317.959 5.81976 232.934C5.81976 147.909 74.6488 78.9831 159.552 78.9831C244.456 78.9832 313.285 147.909 313.285 232.934C313.285 317.959 244.456 386.885 159.552 386.885Z" stroke="#6246E5"/>
<path d="M175.308 390.206C83.9927 390.206 9.96621 316.076 9.96621 224.63C9.96621 133.184 83.9927 59.0542 175.308 59.0542C266.622 59.0542 340.649 133.184 340.649 224.63C340.649 316.076 266.622 390.206 175.308 390.206Z" stroke="#6246E5"/>
<path d="M190.648 393.528C93.1504 393.528 14.112 314.378 14.1121 216.742C14.1121 119.105 93.1504 39.9553 190.648 39.9553C288.145 39.9553 367.183 119.105 367.183 216.742C367.183 314.379 288.145 393.528 190.648 393.528Z" stroke="#6246E5"/>
<path d="M208.061 397.68C100.947 397.68 14.112 310.723 14.1121 203.456C14.1121 96.1879 100.947 9.23143 208.061 9.23144C315.175 9.23144 402.01 96.1879 402.01 203.456C402.01 310.723 315.175 397.68 208.061 397.68Z" stroke="#6246E5"/>
</g>
</g>
<defs>
<linearGradient id="paint0_linear" x1="635.035" y1="-63.5331" x2="386.704" y2="407.066" gradientUnits="userSpaceOnUse">
<stop stop-color="#747DEF"/>
<stop offset="1" stop-color="#5E3BE1"/>
</linearGradient>
</defs>
</svg>
