<svg width="120" height="120" viewBox="0 0 120 120" fill="none" xmlns="http://www.w3.org/2000/svg">
<path d="M49 75C49 84.9411 57.0589 93 67 93L94 93C96.7614 93 99 90.7614 99 88L99 54C99 48.4772 94.5228 44 89 44L54 44C51.2386 44 49 46.2386 49 49L49 75Z" fill="#FFF1DA"/>
<path d="M72 54.8482V49.1518C72 48.0351 71.0947 47.1299 69.978 47.1299H67.7994C66.9283 47.1299 66.1553 46.5717 65.8815 45.7448C65.5764 44.8235 65.2058 43.9322 64.7752 43.0763C64.3831 42.2967 64.5332 41.3542 65.1502 40.7371L66.6916 39.1957C67.4813 38.406 67.4813 37.1259 66.6916 36.3362L62.6637 32.3082C61.874 31.5186 60.5938 31.5186 59.8042 32.3082L58.2628 33.8497C57.6457 34.4668 56.7032 34.6168 55.9236 34.2246C55.0677 33.7941 54.1763 33.4234 53.2551 33.1184C52.4281 32.8446 51.87 32.0716 51.87 31.2005V29.0219C51.87 27.9052 50.9648 27 49.8481 27H44.1517C43.035 27 42.1298 27.9052 42.1298 29.0219V31.2006C42.1298 32.0717 41.5716 32.8447 40.7447 33.1185C39.8234 33.4235 38.9321 33.7942 38.0761 34.2247C37.2966 34.6169 36.3541 34.4668 35.737 33.8498L34.1956 32.3083C33.4059 31.5187 32.1257 31.5187 31.3361 32.3083L27.3083 36.3363C26.5187 37.126 26.5187 38.4061 27.3083 39.1958L28.8498 40.7372C29.4668 41.3543 29.6169 42.2968 29.2247 43.0764C28.7941 43.9323 28.4235 44.8236 28.1185 45.7449C27.9249 46.3293 27.4822 46.7794 26.9317 46.9932C26.7032 47.0819 26.5567 47.2305 26.3012 47.2305H24.1225C23.0058 47.2305 22.1006 48.1357 22.1006 49.2524V54.7476C22.1006 55.8643 23.0058 56.7695 24.1225 56.7695H26.3012C27.1723 56.7695 27.9453 57.4283 28.2191 58.2552C28.5241 59.1765 28.8948 60.0677 29.3253 60.9237C29.7175 61.7033 29.5674 62.6458 28.9504 63.2629L27.5095 64.8043C26.7199 65.594 26.7199 66.8741 27.5095 67.6638L31.3363 71.4905C32.1259 72.2802 33.4061 72.2802 34.1958 71.4905L35.7372 69.9491C36.3542 69.332 37.2968 69.182 38.0763 69.5741C38.9323 70.0047 40.0248 70.476 40.9461 70.781C41.773 71.0548 42.3312 71.8278 42.3312 72.6989V74.8776C42.3312 75.9943 43.2364 76.8995 44.3531 76.8995H49.7477C50.8644 76.8995 51.7696 75.9943 51.7696 74.8776V72.6989C51.7696 72.4434 51.9182 72.2969 52.0069 72.0684C52.2207 71.5179 52.6709 71.0752 53.2552 70.8816C54.1764 70.5766 55.0678 70.2059 55.9237 69.7754C56.7033 69.3832 57.6458 69.5333 58.2629 70.1503L59.8043 71.6917C60.5939 72.4814 61.8741 72.4814 62.6638 71.6917L66.6917 67.6638C67.4814 66.8741 67.4814 65.594 66.6917 64.8043L65.1503 63.2629C64.5333 62.6458 64.3832 61.7033 64.7753 60.9237C65.2059 60.0678 65.5765 59.1765 65.8816 58.2552C66.1554 57.4283 66.9284 56.8701 67.7995 56.8701H69.9782C71.0948 56.8701 72 55.9649 72 54.8482V54.8482Z" fill="#B6C4CF"/>
<path d="M52.007 72.0684C51.9185 72.2967 51.8702 72.5442 51.8702 72.7998V74.9778C51.8702 76.0945 50.9648 77 49.8481 77H44.1519C43.0352 77 42.1298 76.0945 42.1298 74.9778V72.7998C42.1298 71.9285 41.5714 71.1549 40.7445 70.8812C39.8239 70.5764 38.9326 70.2062 38.0765 69.7756C37.2968 69.3833 36.3541 69.5332 35.7374 70.1499L34.1962 71.6911C33.4064 72.4808 32.1258 72.4808 31.336 71.6911L27.3078 67.6639C26.5191 66.8742 26.5191 65.5935 27.3078 64.8038L28.8501 63.2625C29.4668 62.6458 29.6167 61.7032 29.2243 60.9235C28.7938 60.0674 28.4235 59.176 28.1187 58.2555C27.8451 57.4285 27.0714 56.8702 26.2002 56.8702H24.0221C22.9054 56.8702 22 55.9648 22 54.8481V49.1519C22 48.0352 22.9054 47.1297 24.0221 47.1297H26.2002C26.4557 47.1297 26.7032 47.0815 26.9316 46.9929C26.9296 47.1187 26.9286 47.2454 26.9286 47.3722C26.9286 61.013 37.9869 72.0714 51.6278 72.0714C51.7545 72.0714 51.8813 72.0704 52.007 72.0684V72.0684Z" fill="#9FACBA"/>
<path d="M47 68.5996C56.1677 68.5996 63.5996 61.1677 63.5996 52C63.5996 42.8323 56.1677 35.4004 47 35.4004C37.8323 35.4004 30.4004 42.8323 30.4004 52C30.4004 61.1677 37.8323 68.5996 47 68.5996Z" fill="#9FACBA"/>
<path d="M47 65.0784C54.223 65.0784 60.0784 59.223 60.0784 52C60.0784 44.7769 54.223 38.9215 47 38.9215C39.7769 38.9215 33.9215 44.7769 33.9215 52C33.9215 59.223 39.7769 65.0784 47 65.0784Z" fill="#F8F7F7"/>
</svg>
